<svg width="180" height="188" viewBox="0 0 180 188" fill="none" xmlns="http://www.w3.org/2000/svg">
<g filter="url(#filter0_d_57_401)">
<rect x="20" y="20" width="140" height="148" rx="25" fill="#1D253B"/>
</g>
<g filter="url(#filter1_d_57_401)">
<path d="M133 64.9922V94.6331H112.407H110.535L109.599 98.6892H90.2546L128.32 60L133 64.9922Z" fill="#FF8030" stroke="#FF8030"/>
<circle cx="117.399" cy="97.1292" r="5.30417" fill="#FF8030"/>
<circle cx="59.6645" cy="97.1292" r="5.30417" fill="#DF4B48"/>
<path fill-rule="evenodd" clip-rule="evenodd" d="M88.6944 98.6892H64.6697C64.5066 98.9641 64.3393 99.2202 64.1686 99.4584C64.5128 98.7553 64.7061 97.9648 64.7061 97.1292C64.7061 94.1997 62.3313 91.825 59.4019 91.825C57.3215 91.825 55.5209 93.0227 54.6519 94.7662C54.6447 93.8723 54.6484 93.2247 54.6854 93.073C53.2479 93.5128 52.7701 94.2889 51.8772 96.1931H45.949C45.2022 96.1082 44.9351 95.38 45.013 91.513H47.1971V83.0887C48.5365 78.7802 50.0004 76.4546 53.7493 72.4804H69.3498L71.2218 75.2885V64.9921H112.407L88.6944 88.0809L79.6461 79.0326L74.9659 84.3367L88.6944 98.6892ZM62.4859 74.0404V80.9046C59.2012 80.9363 56.2897 81.4158 49.3814 83.0887C50.6805 78.7603 52.0062 76.6879 55.3096 74.0404H62.4859ZM68.7259 74.0404H64.6698V81.2167H68.7259V74.0404ZM61.5496 83.0887V84.9608H62.4856V83.0887H61.5496Z" fill="#DF4B48"/>
<path d="M64.6697 98.6892V98.1892H64.385L64.2397 98.4341L64.6697 98.6892ZM88.6944 98.6892V99.1892H89.8645L89.0557 98.3436L88.6944 98.6892ZM64.1686 99.4584L63.7195 99.2386L64.575 99.7497L64.1686 99.4584ZM54.6519 94.7662L54.1519 94.7702L55.0994 94.9892L54.6519 94.7662ZM54.6854 93.073L55.1712 93.1914L55.3793 92.3378L54.5391 92.5949L54.6854 93.073ZM51.8772 96.1931V96.6931H52.195L52.3299 96.4054L51.8772 96.1931ZM45.949 96.1931L45.8925 96.6899L45.9207 96.6931H45.949V96.1931ZM45.013 91.513V91.013H44.523L44.5131 91.5029L45.013 91.513ZM47.1971 91.513V92.013H47.6971V91.513H47.1971ZM47.1971 83.0887L46.7196 82.9403L46.6971 83.0128V83.0887H47.1971ZM53.7493 72.4804V71.9804H53.5336L53.3856 72.1373L53.7493 72.4804ZM69.3498 72.4804L69.7658 72.203L69.6174 71.9804H69.3498V72.4804ZM71.2218 75.2885L70.8058 75.5658L71.7218 76.9399V75.2885H71.2218ZM71.2218 64.9921V64.4921H70.7218V64.9921H71.2218ZM112.407 64.9921L112.756 65.3504L113.637 64.4921H112.407V64.9921ZM88.6944 88.0809L88.3408 88.4344L88.6897 88.7833L89.0432 88.4391L88.6944 88.0809ZM79.6461 79.0326L79.9996 78.679L79.6233 78.3027L79.2712 78.7018L79.6461 79.0326ZM74.9659 84.3367L74.591 84.0059L74.2871 84.3504L74.6046 84.6824L74.9659 84.3367ZM62.4859 80.9046L62.4907 81.4046L62.9859 81.3999V80.9046H62.4859ZM62.4859 74.0404H62.9859V73.5404H62.4859V74.0404ZM49.3814 83.0887L48.9025 82.945L48.652 83.7798L49.4991 83.5747L49.3814 83.0887ZM55.3096 74.0404V73.5404H55.134L54.9969 73.6503L55.3096 74.0404ZM64.6698 74.0404V73.5404H64.1698V74.0404H64.6698ZM68.7259 74.0404H69.2259V73.5404H68.7259V74.0404ZM64.6698 81.2167H64.1698V81.7167H64.6698V81.2167ZM68.7259 81.2167V81.7167H69.2259V81.2167H68.7259ZM61.5496 84.9608H61.0496V85.4608H61.5496V84.9608ZM61.5496 83.0887V82.5887H61.0496V83.0887H61.5496ZM62.4856 84.9608V85.4608H62.9856V84.9608H62.4856ZM62.4856 83.0887H62.9856V82.5887H62.4856V83.0887ZM55.3094 74.0404V73.5404H55.1135L54.9697 73.6735L55.3094 74.0404ZM49.8916 82.9662L50.0083 83.4524L50.0084 83.4524L49.8916 82.9662ZM64.6697 81.2166H64.1697V81.6642L64.6145 81.7136L64.6697 81.2166ZM64.6697 74.0404V73.5404H64.1697V74.0404H64.6697ZM62.4856 83.0887H62.9856V82.5887H62.4856V83.0887ZM62.4856 84.9608V85.4608H62.9856V84.9608H62.4856ZM61.5496 83.0887V82.5887H61.0496V83.0887H61.5496ZM64.6697 99.1892H88.6944V98.1892H64.6697V99.1892ZM64.575 99.7497C64.7545 99.4993 64.9296 99.2311 65.0997 98.9443L64.2397 98.4341C64.0836 98.6972 63.9242 98.9412 63.7622 99.1671L64.575 99.7497ZM64.2061 97.1292C64.2061 97.8869 64.031 98.6024 63.7195 99.2386L64.6177 99.6783C64.9947 98.9082 65.2061 98.0427 65.2061 97.1292H64.2061ZM59.4019 92.325C62.0552 92.325 64.2061 94.4759 64.2061 97.1292H65.2061C65.2061 93.9236 62.6075 91.325 59.4019 91.325V92.325ZM55.0994 94.9892C55.8871 93.4089 57.5184 92.325 59.4019 92.325V91.325C57.1247 91.325 55.1547 92.6365 54.2044 94.5431L55.0994 94.9892ZM54.1996 92.9546C54.1781 93.043 54.1696 93.1552 54.1644 93.2476C54.1584 93.3534 54.1545 93.4841 54.1522 93.6333C54.1474 93.9323 54.1483 94.3227 54.1519 94.7702L55.1519 94.7622C55.1483 94.3158 55.1475 93.9354 55.152 93.6492C55.1543 93.5058 55.1579 93.3904 55.1628 93.3041C55.1684 93.2045 55.1742 93.1789 55.1712 93.1914L54.1996 92.9546ZM52.3299 96.4054C52.78 95.4455 53.0975 94.8353 53.4593 94.4063C53.7988 94.0037 54.1902 93.7474 54.8317 93.5511L54.5391 92.5949C53.7431 92.8385 53.1769 93.1901 52.6949 93.7616C52.2352 94.3066 51.8673 95.0365 51.4245 95.9808L52.3299 96.4054ZM45.949 96.6931H51.8772V95.6931H45.949V96.6931ZM44.5131 91.5029C44.4743 93.4286 44.5183 94.6363 44.6837 95.3799C44.7672 95.7552 44.8938 96.0737 45.1081 96.3076C45.3392 96.5598 45.6206 96.659 45.8925 96.6899L46.0055 95.6963C45.9041 95.6848 45.872 95.6611 45.8454 95.6321C45.802 95.5847 45.7267 95.4635 45.6598 95.1628C45.5245 94.5543 45.4738 93.4644 45.5129 91.523L44.5131 91.5029ZM47.1971 91.013H45.013V92.013H47.1971V91.013ZM46.6971 83.0887V91.513H47.6971V83.0887H46.6971ZM53.3856 72.1373C51.5018 74.1343 50.1725 75.7374 49.1446 77.3958C48.1141 79.0585 47.3978 80.7587 46.7196 82.9403L47.6745 83.2371C48.3357 81.1102 49.0211 79.4933 49.9946 77.9226C50.9709 76.3475 52.2479 74.8007 54.113 72.8235L53.3856 72.1373ZM69.3498 71.9804H53.7493V72.9804H69.3498V71.9804ZM71.6378 75.0111L69.7658 72.203L68.9337 72.7577L70.8058 75.5658L71.6378 75.0111ZM70.7218 64.9921V75.2885H71.7218V64.9921H70.7218ZM112.407 64.4921H71.2218V65.4921H112.407V64.4921ZM89.0432 88.4391L112.756 65.3504L112.058 64.6339L88.3456 87.7226L89.0432 88.4391ZM79.2925 79.3861L88.3408 88.4344L89.0479 87.7273L79.9996 78.679L79.2925 79.3861ZM75.3409 84.6676L80.021 79.3634L79.2712 78.7018L74.591 84.0059L75.3409 84.6676ZM89.0557 98.3436L75.3273 83.9911L74.6046 84.6824L88.333 99.0348L89.0557 98.3436ZM62.9859 80.9046V74.0404H61.9859V80.9046H62.9859ZM49.4991 83.5747C56.4021 81.9031 59.2667 81.4357 62.4907 81.4046L62.481 80.4047C59.1357 80.4369 56.1773 80.9286 49.2638 82.6028L49.4991 83.5747ZM54.9969 73.6503C53.3203 74.994 52.1204 76.2119 51.1751 77.6611C50.2315 79.1078 49.5587 80.7589 48.9025 82.945L49.8603 83.2325C50.5033 81.0902 51.1429 79.5409 52.0127 78.2074C52.8809 76.8764 53.9955 75.7344 55.6223 74.4306L54.9969 73.6503ZM62.4859 73.5404H55.3096V74.5404H62.4859V73.5404ZM64.6698 74.5404H68.7259V73.5404H64.6698V74.5404ZM65.1698 81.2167V74.0404H64.1698V81.2167H65.1698ZM68.7259 80.7167H64.6698V81.7167H68.7259V80.7167ZM68.2259 74.0404V81.2167H69.2259V74.0404H68.2259ZM62.0496 84.9608V83.0887H61.0496V84.9608H62.0496ZM62.4856 84.4608H61.5496V85.4608H62.4856V84.4608ZM61.9856 83.0887V84.9608H62.9856V83.0887H61.9856ZM61.5496 83.5887H62.4856V82.5887H61.5496V83.5887ZM55.6477 74.4086L55.6491 74.4073L54.9697 73.6735L54.9683 73.6748L55.6477 74.4086ZM55.3094 74.5404H62.4856V73.5404H55.3094V74.5404ZM62.4734 80.4048C57.9524 80.5151 54.8854 81.2529 49.7749 82.48L50.0084 83.4524C55.1244 82.224 58.0959 81.5119 62.4978 81.4045L62.4734 80.4048ZM49.7749 82.48L49.2936 82.5955L49.527 83.5679L50.0083 83.4524L49.7749 82.48ZM49.4097 82.5895L49.4095 82.5895L49.353 83.5879L49.3532 83.5879L49.4097 82.5895ZM64.6145 81.7136L64.6146 81.7136L64.725 80.7197L64.7249 80.7197L64.6145 81.7136ZM68.7258 73.5404H64.6697V74.5404H68.7258V73.5404ZM64.1697 74.0404V81.2166H65.1697V74.0404H64.1697ZM61.9856 83.0887V84.9608H62.9856V83.0887H61.9856ZM62.4856 84.4608H62.4856V85.4608H62.4856V84.4608ZM62.0496 83.0887V83.0887H61.0496V83.0887H62.0496ZM61.5496 83.5887H61.8616V82.5887H61.5496V83.5887ZM61.8616 83.5887H62.4856V82.5887H61.8616V83.5887Z" fill="#DF4B48"/>
</g>
<path d="M49.88 107.04V109.3H46.16V121H43.36V109.3H39.64V107.04H49.88ZM93.9414 107.04V109.3H88.1214V112.88H92.5814V115.1H88.1214V121H85.3214V107.04H93.9414Z" fill="#FF8030"/>
<path d="M54.723 109.3V112.8H59.423V115.02H54.723V118.72H60.023V121H51.923V107.02H60.023V109.3H54.723ZM77.7875 107.04V121H74.9875V111.92L71.2475 121H69.1275L65.3675 111.92V121H62.5675V107.04H65.7475L70.1875 117.42L74.6275 107.04H77.7875ZM103.127 121L100.047 115.56H98.7269V121H95.9269V107.04H101.167C102.247 107.04 103.167 107.233 103.927 107.62C104.687 107.993 105.254 108.507 105.627 109.16C106.014 109.8 106.207 110.52 106.207 111.32C106.207 112.24 105.94 113.073 105.407 113.82C104.874 114.553 104.08 115.06 103.027 115.34L106.367 121H103.127ZM98.7269 113.46H101.067C101.827 113.46 102.394 113.28 102.767 112.92C103.14 112.547 103.327 112.033 103.327 111.38C103.327 110.74 103.14 110.247 102.767 109.9C102.394 109.54 101.827 109.36 101.067 109.36H98.7269V113.46ZM111.539 109.3V112.8H116.239V115.02H111.539V118.72H116.839V121H108.739V107.02H116.839V109.3H111.539ZM128.884 107.04V109.3H125.164V121H122.364V109.3H118.644V107.04H128.884ZM133.727 109.3V112.8H138.427V115.02H133.727V118.72H139.027V121H130.927V107.02H139.027V109.3H133.727Z" fill="white"/>
<defs>
<filter id="filter0_d_57_401" x="0" y="0" width="180" height="188" filterUnits="userSpaceOnUse" color-interpolation-filters="sRGB">
<feFlood flood-opacity="0" result="BackgroundImageFix"/>
<feColorMatrix in="SourceAlpha" type="matrix" values="0 0 0 0 0 0 0 0 0 0 0 0 0 0 0 0 0 0 127 0" result="hardAlpha"/>
<feOffset/>
<feGaussianBlur stdDeviation="10"/>
<feComposite in2="hardAlpha" operator="out"/>
<feColorMatrix type="matrix" values="0 0 0 0 0 0 0 0 0 0 0 0 0 0 0 0 0 0 0.1 0"/>
<feBlend mode="normal" in2="BackgroundImageFix" result="effect1_dropShadow_57_401"/>
<feBlend mode="normal" in="SourceGraphic" in2="effect1_dropShadow_57_401" result="shape"/>
</filter>
<filter id="filter1_d_57_401" x="24.5" y="39.2782" width="129" height="83.1551" filterUnits="userSpaceOnUse" color-interpolation-filters="sRGB">
<feFlood flood-opacity="0" result="BackgroundImageFix"/>
<feColorMatrix in="SourceAlpha" type="matrix" values="0 0 0 0 0 0 0 0 0 0 0 0 0 0 0 0 0 0 127 0" result="hardAlpha"/>
<feOffset/>
<feGaussianBlur stdDeviation="10"/>
<feComposite in2="hardAlpha" operator="out"/>
<feColorMatrix type="matrix" values="0 0 0 0 0 0 0 0 0 0 0 0 0 0 0 0 0 0 0.1 0"/>
<feBlend mode="normal" in2="BackgroundImageFix" result="effect1_dropShadow_57_401"/>
<feBlend mode="normal" in="SourceGraphic" in2="effect1_dropShadow_57_401" result="shape"/>
</filter>
</defs>
</svg>
